<svg width="375" height="413" viewBox="0 0 375 413" fill="none" xmlns="http://www.w3.org/2000/svg">
<path d="M189 79.5C286.243 79.5 365.5 146.664 365.5 230C365.5 313.336 286.243 380.5 189 380.5C91.7571 380.5 12.5 313.336 12.5 230C12.5 146.664 91.7571 79.5 189 79.5Z" fill="#EDAB29" stroke="#754800" stroke-width="3"/>
<mask id="mask0_3_143" style="mask-type:alpha" maskUnits="userSpaceOnUse" x="14" y="81" width="350" height="298">
<ellipse cx="189" cy="230" rx="175" ry="149" fill="#FFAD4F"/>
</mask>
<g mask="url(#mask0_3_143)">
<ellipse cx="189" cy="230" rx="175" ry="149" fill="#EDAB29"/>
<rect x="30" y="214.586" width="19" height="164.414" fill="#DD9300"/>
<rect x="70" y="214.586" width="19" height="164.414" fill="#DD9300"/>
<rect x="120" y="214.586" width="19" height="164.414" fill="#DD9300"/>
<rect x="240" y="214.586" width="19" height="164.414" fill="#DD9300"/>
<rect x="180" y="214.586" width="19" height="164.414" fill="#DD9300"/>
<rect x="290" y="214.586" width="19" height="164.414" fill="#DD9300"/>
<rect x="330" y="214.586" width="19" height="164.414" fill="#DD9300"/>
</g>
<mask id="path-11-inside-1_3_143" fill="white">
<path d="M11 168H367V233H11V168Z"/>
</mask>
<path d="M11 168H367V233H11V168Z" fill="#EDAB29"/>
<path d="M367 168H364V233H367H370V168H367ZM11 233H14V168H11H8V233H11Z" fill="#754800" mask="url(#path-11-inside-1_3_143)"/>
<circle cx="189" cy="178" r="176.5" fill="#FFDC4F" stroke="#754800" stroke-width="3"/>
<mask id="mask1_3_143" style="mask-type:alpha" maskUnits="userSpaceOnUse" x="14" y="3" width="350" height="350">
<circle cx="189" cy="178" r="174.5" fill="#FFDC4F" stroke="black"/>
</mask>
<g mask="url(#mask1_3_143)">
<circle cx="189" cy="178" r="175.5" fill="#FFDC4F" stroke="black"/>
<circle cx="47" cy="107.358" r="175" fill="#FFE785"/>
<ellipse cx="56.5" cy="84.8807" rx="32.5" ry="35.8563" fill="#FFF1B7"/>
<ellipse cx="310.5" cy="286.104" rx="32.5" ry="35.8563" fill="#FFE785"/>
</g>
<mask id="mask2_3_143" style="mask-type:alpha" maskUnits="userSpaceOnUse" x="49" y="37" width="280" height="280">
<circle cx="189" cy="177" r="140" fill="#F1A943"/>
</mask>
<g mask="url(#mask2_3_143)">
<circle cx="189" cy="177" r="140" fill="#EBA242"/>
</g>
<mask id="mask3_3_143" style="mask-type:alpha" maskUnits="userSpaceOnUse" x="50" y="63" width="280" height="254">
<ellipse cx="190" cy="190" rx="140" ry="127" fill="#FFD24C"/>
</mask>
<g mask="url(#mask3_3_143)">
<circle cx="189" cy="177" r="140" fill="#FFD24C"/>
<circle cx="43" cy="108" r="175" fill="#FFD863"/>
</g>
<path d="M254.707 138.325C258.157 144.895 259.439 144.003 259.577 151.485C259.683 157.258 259.285 168.247 259.093 169.997C258.423 176.14 257.15 187.355 256.689 189.327C255.011 196.507 251.83 209.581 250.972 211.866C249.437 215.956 247.505 220.75 246.803 222.008C243.713 227.543 238.043 235.449 237.202 236.264C233.881 239.484 227.458 245.613 226.046 246.383C221.16 249.045 212.554 253.479 210.915 253.87C204.107 255.497 191.907 256.974 190.798 256.988C187.179 257.035 179.406 257.04 168.945 255.177C163.268 254.166 156.206 249.578 154.714 248.713C150.037 245.998 143.096 241.88 142.039 240.753C138.655 237.147 133.282 231.338 132.426 229.91C130.284 226.341 127.317 221.343 126.861 220.292C124.923 215.819 121.288 207.298 120.786 205.075C119.541 199.571 117.726 191.444 117.368 189.121C116.295 182.168 114.705 171.521 114.692 168.685C114.659 161.65 115.215 150.692 115.645 149.072C118.639 137.802 121.236 137.269 127.16 131.886C130.772 128.604 136.305 126.171 141.93 123.872C148.636 121.132 153.951 118.799 168.983 116.735C178.656 115.407 198.602 115.474 209.187 116.473C225.786 118.039 236.503 124.175 241.239 127.211C248.625 131.945 254.792 137.62 254.633 138.267" fill="#DD983D"/>
<path d="M260.973 140.4C260.973 139.196 270.81 141.497 270.81 142.702C270.854 142.403 274.311 144.167 275.925 145.505C276.273 145.792 278.874 148.871 280.551 150.959C281.011 151.533 282.205 153.885 283.178 155.887C283.725 157.012 284.522 161.102 284.955 163.499C285.088 164.24 284.896 169.08 284.772 171.843C284.743 172.479 283.946 175.441 283.249 177.926C282.927 179.074 281.55 182.094 280.465 184.394C279.886 185.624 276.417 190.151 274.781 192.258C274.413 192.733 270.338 196.267 268.025 198.26C267.366 198.827 263.484 201.424 261.251 202.906C260.588 203.346 252.971 207.412 249.893 208.953C248.971 209.414 255.182 190.267 256.102 188.06C256.382 187.389 259.525 185.729 260.541 185.206C260.693 185.128 263.586 182.796 264.88 181.75C265.127 181.551 266.617 179.896 267.607 178.788C267.943 178.412 269.294 176.171 270.192 174.659C270.5 174.139 271.172 171.765 271.608 170.156C271.773 169.544 271.318 167.308 271.351 165.859C271.358 165.518 271.021 164.574 270.713 163.786C270.572 163.427 269.88 162.394 269.282 161.532C268.998 161.122 268.133 160.511 267.45 160.068C267.128 159.859 265.882 159.314 265.035 158.953C264.565 158.753 259.999 158.675 259.999 158.675" fill="#FFE785"/>
<path d="M256.941 129.595C260.537 136.165 261.874 135.273 262.017 142.756C262.128 148.528 261.713 159.517 261.514 161.267C260.814 167.41 259.488 178.626 259.007 180.598C257.258 187.778 253.943 200.852 253.048 203.137C251.448 207.226 249.434 212.021 248.702 213.279C245.483 218.813 239.572 226.719 238.695 227.534C235.234 230.754 228.54 236.883 227.067 237.654C221.975 240.316 213.005 244.749 211.295 245.14C204.199 246.767 191.484 248.244 190.328 248.258C186.556 248.305 178.454 248.31 167.55 246.447C161.633 245.436 154.271 240.848 152.717 239.983C147.842 237.268 140.608 233.15 139.506 232.023C135.978 228.417 130.378 222.608 129.485 221.181C127.253 217.612 124.16 212.613 123.686 211.563C121.666 207.09 117.877 198.568 117.353 196.345C116.055 190.841 114.164 182.715 113.791 180.392C112.672 173.438 111.015 162.791 111.001 159.956C110.967 152.92 111.546 141.963 111.994 140.342C115.115 129.072 117.822 128.539 123.997 123.157C127.761 119.875 133.529 117.442 139.392 115.142C146.381 112.402 151.922 110.07 167.59 108.005C177.672 106.677 198.462 106.744 209.495 107.743C226.797 109.31 237.967 115.446 242.904 118.481C250.601 123.216 257.03 128.891 256.864 129.538" fill="#FFE785"/>
<path d="M186.675 168.549C222.056 168.549 250.738 156.213 250.738 140.997C250.738 125.78 222.056 113.445 186.675 113.445C151.293 113.445 122.611 125.78 122.611 140.997C122.611 156.213 151.293 168.549 186.675 168.549Z" fill="#DD983D"/>
</svg>
