<svg width="902" height="356" viewBox="0 0 902 356" fill="none" xmlns="http://www.w3.org/2000/svg">
<path d="M902 150.918C902 203.34 708.634 245.836 470.106 245.836C231.577 245.836 38.2115 203.34 38.2115 150.918C38.2115 98.4963 231.577 56.0001 470.106 56.0001C708.634 56.0001 902 98.4963 902 150.918Z" fill="#744C25"/>
<path d="M902 245.836C902 319.172 707.423 356 468.894 356C230.366 356 37 296.549 37 223.213C37 149.877 230.366 90.4263 468.894 90.4263C707.423 90.4263 902 172.5 902 245.836Z" fill="#744C25"/>
<path d="M887 157.59C887 206.517 706.376 246.18 483.566 246.18C260.755 246.18 80.1316 206.517 80.1316 157.59C80.1316 108.663 260.755 69.0001 483.566 69.0001C706.376 69.0001 887 108.663 887 157.59Z" fill="#FFF7E5"/>
<path d="M887 246.18C887 314.627 705.245 349 482.434 349C259.624 349 79 293.513 79 225.066C79 156.619 259.624 101.131 482.434 101.131C705.245 101.131 887 177.733 887 246.18Z" fill="#FFF7E5"/>
<path d="M314.995 32.467C322.375 64.2051 258.149 106.259 171.541 126.397C84.9339 146.536 8.74223 137.132 1.36239 105.394C-6.01746 73.6559 58.2091 31.6018 144.816 11.4636C231.424 -8.67465 307.616 0.728914 314.995 32.467Z" fill="#744C25"/>
</svg>
