<svg xmlns="http://www.w3.org/2000/svg" width="430" height="430" style="width:100%;height:100%;transform:translate3d(0,0,0);content-visibility:visible" viewBox="0 0 430 430"><defs><clipPath id="c"><path d="M0 0h430v430H0z"/></clipPath><clipPath id="e"><path d="M0 0h430v430H0z"/></clipPath><clipPath id="d"><path d="M0 0h430v430H0z"/></clipPath><filter id="a" width="100%" height="100%" x="0%" y="0%" filterUnits="objectBoundingBox"><feComponentTransfer in="SourceGraphic"><feFuncA tableValues="1.0 0.0" type="table"/></feComponentTransfer></filter><path id="b" style="display:none"/><mask id="f" mask-type="alpha"><g filter="url(#a)"><path fill="#fff" d="M0 0h430v430H0z" opacity="0"/><use xmlns:ns1="http://www.w3.org/1999/xlink" ns1:href="#b"/></g></mask></defs><g clip-path="url(#c)"><g clip-path="url(#d)" style="display:block"><path fill="#EBE6EF" d="M185 12.5v-55h-370v55c0 16.569 13.431 30 30 30h310c16.569 0 30-13.431 30-30z" class="secondary" style="display:block" transform="translate(215 307.5)"/><path fill="#EBE6EF" d="M185 12.5v-55h-370v55c0 16.569 13.431 30 30 30h310c16.569 0 30-13.431 30-30z" class="secondary" style="mix-blend-mode:multiply;display:block" transform="translate(215 307.5)"/><g opacity=".5" style="mix-blend-mode:multiply;display:block"><path fill="#EBE6EF" d="M59.5 349h23.411c-8.083-5.375-16.536-14.565-16.536-25v-5H375c13.807 0 25-11.193 25-25v-30H29.5v55c0 16.569 13.431 30 30 30z" class="secondary" opacity="1"/></g><path fill="#EBE6EF" d="M-155-110c-16.569 0-30 13.431-30 30V80c0 16.569 13.431 30 30 30h310c16.569 0 30-13.431 30-30V-80c0-16.569-13.431-30-30-30h-310z" class="secondary" style="display:block" transform="translate(215 190)"/><g opacity=".5" style="mix-blend-mode:multiply;display:block"><path fill="#EBE6EF" d="M30 110c0-16.569 13.431-30 30-30h35c-16.569 0-30 13.431-30 30v160c0 16.569 13.431 30 30 30H60c-16.569 0-30-13.431-30-30V110z" class="secondary" opacity="1"/></g><path fill="none" stroke="#3A3347" stroke-linecap="round" stroke-linejoin="round" stroke-width="7" d="M0 35v-70m-28.194 0h56.388" class="primary" style="display:block" transform="translate(144.194 190)"/><path fill="none" stroke="#3A3347" stroke-linecap="round" stroke-linejoin="round" stroke-width="7" d="M8.75 0h-33.056v35H8.75c8.591 0 15.556-6.965 15.556-15.556v-3.888C24.306 6.965 17.341 0 8.75 0zM4.861-35h-29.167V0H4.861c8.591 0 15.556-6.965 15.556-15.556v-3.888C20.417-28.035 13.452-35 4.861-35z" class="primary" style="display:block" transform="translate(289.694 190)"/><path fill="none" stroke="#3A3347" stroke-linecap="round" stroke-linejoin="round" stroke-width="7" d="M-21.99 15h43.975m-43.975 0 16.764-50H5.209l16.776 50m-43.975 0L-29 35m50.985-20L29 35" class="primary" style="display:block" transform="translate(211.389 190)"/></g><g clip-path="url(#e)" style="display:none"><path class="secondary" style="display:none"/><path class="secondary" style="mix-blend-mode:multiply;display:none"/><path class="secondary" style="mix-blend-mode:multiply;display:none"/><path class="secondary" style="display:none"/><g mask="url(#f)" style="mix-blend-mode:multiply;display:none"><path class="secondary"/></g><g fill="none" style="display:none"><path class="primary"/><path class="primary"/></g><g fill="none" style="display:none"><path class="primary"/><path class="primary"/><path class="primary"/></g><g fill="none" style="display:none"><path class="primary"/><path class="primary"/></g></g></g></svg>