<?xml version="1.0" encoding="UTF-8"?>
<svg id="Calque_1" data-name="Calque 1" xmlns="http://www.w3.org/2000/svg" viewBox="0 0 1080 1080">
  <rect x="0" y="0" width="1080" height="1080" fill="none"/>
  <defs>
    <style>
      .cls-1 {
        fill: #a07f6c;
      }

      .cls-2 {
        fill: #896044;
      }

      .cls-3 {
        fill: #967154;
      }

      .cls-4 {
        fill: #512e0e;
      }

      .cls-5 {
        fill: #c7a077;
      }

      .cls-6 {
        fill: #a0735c;
      }

      .cls-7 {
        fill: #c5a37e;
      }
    </style>
  </defs>
  <polygon class="cls-5" points="103.46 419.68 141.96 654.26 925.57 786.17 972.63 519.5 103.46 419.68"/>
  <polygon class="cls-7" points="103.46 419.62 178.11 372.03 971.26 455.37 972.63 519.45 103.46 419.62"/>
  <g id="cube">
    <polygon class="cls-2" points="831.89 488.74 835.67 481.77 835.67 463.31 831.89 463.31 831.89 488.74"/>
    <polygon class="cls-3" points="807.66 486.5 831.89 488.74 831.89 463.31 807.66 463.31 807.66 486.5"/>
  </g>
  <g id="cube-2" data-name="cube">
    <polygon class="cls-2" points="667.56 468.3 672.78 464.41 672.85 449.26 667.56 449.52 667.56 468.3"/>
    <polygon class="cls-3" points="644.58 466.06 667.56 468.3 667.56 449.52 644.58 449.09 644.58 466.06"/>
  </g>
  <g id="cube-3" data-name="cube">
    <polygon class="cls-2" points="513.83 451.91 522.44 445.5 522.44 432.7 513.83 433.13 513.83 451.91"/>
    <polygon class="cls-3" points="490.85 449.67 513.83 451.91 513.83 433.13 490.85 432.7 490.85 449.67"/>
  </g>
  <g id="cube-4" data-name="cube">
    <polygon class="cls-2" points="368.84 436.44 377.45 430.03 377.45 417.23 368.84 417.66 368.84 436.44"/>
    <polygon class="cls-3" points="345.86 434.19 368.84 436.44 368.84 417.66 345.86 417.23 345.86 434.19"/>
  </g>
  <g id="cube-5" data-name="cube">
    <polygon class="cls-2" points="236.22 421.92 244.82 415.51 244.82 402.71 236.22 403.14 236.22 421.92"/>
    <polygon class="cls-3" points="213.24 419.68 236.22 421.92 236.22 403.14 213.24 402.71 213.24 419.68"/>
  </g>
  <g id="Haut_bar" data-name="Haut bar">
    <polygon class="cls-6" points="903.28 354.39 895.4 410.07 907.77 410.07 905.8 354.55 903.28 354.39"/>
    <polygon class="cls-6" points="253.74 299.96 253.74 350.45 182.41 335.53 248.91 299.6 253.74 299.96"/>
    <polygon class="cls-6" points="90.41 349.01 97.7 391.81 977.56 486.35 985.68 435.38 90.41 349.01"/>
    <polygon class="cls-1" points="90.41 349.06 201.86 296.12 253.74 299.96 189.57 333.78 903.28 398.67 903.28 354.39 972.63 358.71 985.68 435.44 90.41 349.06"/>
  </g>
  <g>
    <path class="cls-4" d="M315.13,579.27c1.89,8.66-7.29,16.74-12.97,19.69-9.61,5.01-19.9,3.41-26.02-1.1-5.1-3.74-8.8-12.03-7.6-22.13,3.24-26.09,28.27-45.18,42.77-48.48,7-1.63,13.08-1.26,16.52,2.74,2.37,2.72,4.68,6.68,5.22,9.89.59,3.72-.27,7.1-2.65,10.64-2.39,3.54-4.79,8.08-6.65,11.45-.51.93-1.47,1.54-2.81.35-2.56-2.25-3.98-6.33-1.26-12.21,2.9-6.22,8.32-12.59,5.92-15.94-2.91-4.17-22.99,3.09-36.66,19.8-13.37,16.37-14.75,34.71-9.44,40.49,6.94,7.51,21.13,1.15,33.08-15.8.81-1.26,2.16-1.07,2.54.62Z"/>
    <path class="cls-4" d="M365.69,586.76c-4.07,10.06-13.58,21.35-23.1,23.12-4.63.84-10.7-.53-14.69-7.62-4.38-7.89-1.01-18.31,5.92-27.33,5.86-7.68,14.37-13.72,21.8-13.16,3.84.3,5.77,1.7,7.75,5.37,2.28,4.21,5.84,5.6,3.83,14.33-.26.96-.39,1.82-.65,2.79.74.11,1.51-.04,2.49.11.86.12.77.74.19,1.28-1,.86-2.3,1.17-3.54,1.12ZM355.7,582.2c-2.3-2.33-4.63-7.05-4.1-11.61-3.72,2.35-7.86,5.89-11.1,10.18-6.49,8.59-9.95,19.62-7.15,22.78,3.03,3.32,11.14.09,18.77-10.34,2.33-3.17,4.3-6.4,5.7-9.2-.81-.49-1.47-1.09-2.12-1.81ZM361.44,571.87c-.05-4.02-2.61-3.63-3.73-.16-1.09,3.23-.25,6.98,1.45,9.1,1.53-3.67,2.33-6.68,2.28-8.94Z"/>
    <path class="cls-4" d="M390.21,607.07c-.19,1.35-.51,2.68-.84,4.14,5.1-2.4,10.89-7.83,15-13.76.95-1.37,2.19-1.31,2.56.49.35,1.93-.77,4.52-2.28,7.19-1.65,2.77-8.82,9.13-16.56,10.65-3.74,12.12-11.09,24.97-18.04,31.49-4.91,4.56-8.05,4.61-11.28.89-2.7-3.02-5.69-8.33-2.85-18.57,7.36-26.88,42.33-69.84,58.87-88.26,1.19-1.33,2.77-.98,3.05.56.88,4.38-.25,9.61-6.81,17.81-6.23,7.62-16.69,20.28-25.16,32.22,4.45,2.14,5.63,7.07,4.34,15.15ZM360.8,643.56c2.19,3.95,13.82-11.67,20.28-27.91-3.51-.88-5.73-2.83-6.78-5.98-9.21,15.34-15.81,29.93-13.5,33.89ZM384.71,603.52c.77-4.52.09-8.5-.82-8.26-1.3.31-3.33,6.66-3.86,9.47-.69,3.91.05,6.65,2.31,7.47,1.04-2.86,1.84-5.87,2.37-8.68Z"/>
    <path class="cls-4" d="M425.44,612.12c-.19,1.35-.51,2.68-.84,4.14,5.1-2.4,10.89-7.83,15-13.76.95-1.37,2.19-1.31,2.56.49.35,1.93-.77,4.52-2.28,7.19-1.65,2.77-8.82,9.13-16.56,10.65-3.74,12.12-11.09,24.97-18.04,31.49-4.91,4.56-8.05,4.61-11.28.89-2.7-3.02-5.7-8.33-2.85-18.57,7.36-26.88,42.33-69.84,58.87-88.26,1.19-1.33,2.77-.98,3.05.56.88,4.38-.25,9.61-6.81,17.81-6.23,7.62-16.69,20.28-25.16,32.22,4.45,2.14,5.63,7.07,4.34,15.15ZM396.04,648.61c2.19,3.95,13.82-11.67,20.28-27.91-3.51-.88-5.73-2.83-6.78-5.98-9.21,15.34-15.81,29.93-13.5,33.89ZM419.94,608.57c.77-4.52.09-8.5-.82-8.26-1.3.31-3.33,6.66-3.86,9.47-.69,3.91.05,6.65,2.31,7.47,1.04-2.86,1.84-5.87,2.37-8.68Z"/>
    <path class="cls-4" d="M455.4,623.3c10.12,1.95,20.48-6.58,26.92-13.93.75-.89,1.74-.75,2.07.42.35,1.05-.51,4.44-3.18,7.31-6.23,6.75-16.49,11.04-25.96,9.81-15.62-1.99-18.82-18.11-8.58-32.8,10.25-14.69,23.68-19.28,29.31-14.84,2.8,2.28,4.75,4.44,6.33,7.42,1.79,3.26-.27,10.61-6.32,16.13-7.07,6.5-15.75,8.51-23.34.29-5.55,10.73-3.71,18.88,2.74,20.18ZM469.63,596.53c4.67-4.59,8.28-10.59,6.76-12.18-2.28-2.46-13.52,3.45-20.96,14.28-.47.68-.95,1.37-1.28,1.95,5.47,4.67,11.26.11,15.49-4.04Z"/>
    <path class="cls-4" d="M500.08,629.71c10.12,1.95,20.48-6.58,26.92-13.93.75-.89,1.74-.75,2.07.42.35,1.05-.51,4.44-3.18,7.31-6.23,6.75-16.49,11.04-25.96,9.81-15.62-1.99-18.82-18.11-8.58-32.8,10.25-14.69,23.68-19.28,29.31-14.84,2.8,2.28,4.75,4.44,6.33,7.42,1.79,3.26-.27,10.61-6.32,16.13-7.07,6.5-15.75,8.51-23.34.29-5.55,10.73-3.71,18.88,2.74,20.18ZM514.31,602.94c4.67-4.59,8.28-10.59,6.76-12.18-2.28-2.46-13.52,3.45-20.96,14.28-.47.68-.95,1.37-1.28,1.95,5.47,4.67,11.26.11,15.49-4.04Z"/>
    <path class="cls-4" d="M587.62,574.87c-.42-1.44.04-2,1.53-1.91,8.7.5,20.61-3.94,28.9-3.25,6.31.53,12.05,3.35,13.06,12.02,1.03,8.54-2.29,15.08-7.23,19.88-4.21,4.03-11.6,9.24-21.24,11.86,2.17,1.44,3.89,3.44,5.15,6,2.03,4.17.87,11.4-5.23,16.41-6.25,5.12-16.07,8.09-23.12,8.34-4.79.19-7.72-.35-10.22-2.09-2.28-1.58-4.19-3.98-5.45-6.54-1.45-2.96-2.4-5.1,1.55-12.56,6.88-13.04,18.78-29.63,29.95-42.05-4.87-.95-7.06-4.02-7.64-6.11ZM588.99,615.15c-3.49-.12-5.89-.84-7.49-1.95-4.23,5.91-8.23,11.97-10.95,17.85-1.97,4.1-.83,5.77,3.17,5.84,8,.14,19.27-3.38,25.48-9.12,5.35-5,6.14-10.52-4.94-12.73-1.77.12-3.52.12-5.28.12ZM626.41,582.18c-1.54-6.73-14.5-2.83-23.36-1.34-.14,2.74-1.53,6.29-5.41,11.5-3.11,4.19-7.49,9.45-11.95,15.2,25.11-2.16,42.58-16.57,40.71-25.36Z"/>
    <path class="cls-4" d="M626.34,650.82c-11.29-1.62-11.51-17.56.79-30.83,11.84-12.71,22.35-16.96,28.61-16.07,4.79.69,6.7,4.84,6.08,9.14,2.28-2.8,4.23-5.03,5.26-6.13,1.19-1.33,2.23-1.56,3.05-.31,1.65,2.49,1.77,7.77-1.81,13.52-3.25,5.17-11.12,13.81-14.72,19.69-3.95,6.57-4.11,11.19-.25,11.36,7.96.39,21.17-13.12,29.53-30.34-9.43-4.98,4.62-20.01,9.58-19.67,3.84.3,1.58,7.37-2.22,15.46,4.49.14,9.33-1.29,14.45-3.82,1.89-.98,2.79-1.1,3.72.28,1.96,2.91,4.1,8.98-.06,12.64-6.72,5.8-14.21,13.5-17.05,19.35-3.05,6.45-2.39,11.43,1.38,12.22,5.1,1.11,12.4-6.11,17.65-14.76.63-.91,1.53-1.03,1.84.26.4,1.56.33,4.68-1.63,7.91-4.25,6.91-12.26,11.27-18.98,10.06-9.28-1.71-11.74-10.7-7.39-20.1,3.62-7.75,12.4-15.76,18.53-20.89-5.86,2.42-11.33,3.01-15.13,2.46-8.5,16.44-22.2,33.4-35.47,32.5-6.82-.48-9.89-5.3-8.87-11.54-4.65,4.47-10.86,8.46-16.87,7.6ZM634.52,626.06c-8.14,9.61-11.02,20.09-6.25,20.9,4.89.83,12.35-5.75,20.19-15.9,9.53-12.29,11.74-19.86,8.22-20.62-3.77-.79-13.86,5.78-22.15,15.61Z"/>
  </g>
</svg>